<?xml version="1.0" encoding="utf-8"?>
<!-- Generator: Adobe Illustrator 24.0.0, SVG Export Plug-In . SVG Version: 6.00 Build 0)  -->
<svg version="1.1" id="Layer_1" xmlns="http://www.w3.org/2000/svg" xmlns:xlink="http://www.w3.org/1999/xlink" x="0px" y="0px"
	 viewBox="0 0 1800 1800" style="enable-background:new 0 0 1800 1800;" xml:space="preserve">
<g>
	<g>
		<path d="M1614.39,669.02H333.2l1253.38-266.41c3-0.64,5.59-2.42,7.26-4.99c1.67-2.55,2.23-5.67,1.6-8.64l-38.25-179.86
			c-1.32-6.21-7.35-10.21-13.64-8.86L183.22,489.4c-6.21,1.32-10.17,7.42-8.84,13.63l37.79,177.79v873.21
			c0,25.28,20.69,45.97,45.97,45.97h1321.76c25.29,0,45.97-20.7,45.97-45.97V680.51C1625.88,674.17,1620.74,669.02,1614.39,669.02z
			 M199.25,509.49l164.4-34.95l171.17,128.11L369,637.9L199.59,511.11L199.25,509.49z M709.38,401.05l171.17,128.11l-165.83,35.26
			L543.53,436.31L709.38,401.05z M1400.78,254.09l169.42,126.81l0.35,1.62l-164.42,34.95l-171.17-128.13L1400.78,254.09z
			 M1226.25,455.69l-165.82,35.24l-171.19-128.1l165.84-35.24L1226.25,455.69z M374.52,692.01h169.53l-70.4,80.46l-70.4,80.46
			H235.16v-1.65L374.52,692.01z M1602.89,693.66l-139.36,159.26h-169.52l140.8-160.91h168.08V693.66z M1110.1,852.92H940.57
			l140.8-160.91h169.54L1110.1,852.92z M756.68,852.92H587.15l140.8-160.91h169.53L756.68,852.92z"/>
	</g>
</g>
</svg>
